<mxfile host="app.diagrams.net" agent="Mozilla/5.0 (Macintosh; Intel Mac OS X 10_15_7) AppleWebKit/605.1.15 (KHTML, like Gecko) Version/17.5 Safari/605.1.15" version="26.1.2">
  <diagram name="第 1 页" id="rHqLDDLFqZFZl1hkQCrB">
    <mxGraphModel dx="374" dy="325" grid="1" gridSize="10" guides="1" tooltips="1" connect="1" arrows="1" fold="1" page="1" pageScale="1" pageWidth="827" pageHeight="1169" math="0" shadow="0">
      <root>
        <mxCell id="0" />
        <mxCell id="1" parent="0" />
        <mxCell id="gk1aNY16_VAk6JklORu2-229" value="" style="rounded=0;whiteSpace=wrap;html=1;dashed=1;" vertex="1" parent="1">
          <mxGeometry x="580" y="1090" width="120" height="134.32" as="geometry" />
        </mxCell>
        <mxCell id="gk1aNY16_VAk6JklORu2-234" value="&lt;span style=&quot;font-size: 6px;&quot;&gt;边缘集群&lt;/span&gt;" style="text;html=1;align=center;verticalAlign=middle;whiteSpace=wrap;rounded=0;fontStyle=1" vertex="1" parent="1">
          <mxGeometry x="626.1200000000003" y="1244.6700000000005" width="37" height="10.5" as="geometry" />
        </mxCell>
        <mxCell id="gk1aNY16_VAk6JklORu2-235" value="" style="verticalLabelPosition=bottom;verticalAlign=top;html=1;shape=mxgraph.basic.diag_round_rect;dx=6;whiteSpace=wrap;fontStyle=1" vertex="1" parent="1">
          <mxGeometry x="617.7400000000004" y="1230.3500000000001" width="8" height="10.13" as="geometry" />
        </mxCell>
        <mxCell id="gk1aNY16_VAk6JklORu2-236" value="&lt;font style=&quot;font-size: 6px;&quot;&gt;设备&lt;/font&gt;" style="text;html=1;align=center;verticalAlign=middle;whiteSpace=wrap;rounded=0;fontStyle=1" vertex="1" parent="1">
          <mxGeometry x="625.7400000000004" y="1230.3799999999999" width="24" height="7.42" as="geometry" />
        </mxCell>
        <mxCell id="gk1aNY16_VAk6JklORu2-237" value="&amp;lt;/&amp;gt;" style="rounded=1;arcSize=5;fillColor=#666666;strokeColor=none;fontColor=#ffffff;align=center;verticalAlign=middle;whiteSpace=wrap;fontSize=10;fontStyle=1;html=1;sketch=0;" vertex="1" parent="1">
          <mxGeometry x="566.7400000000001" y="1244.3000000000002" width="16" height="12.84" as="geometry" />
        </mxCell>
        <mxCell id="gk1aNY16_VAk6JklORu2-238" value="&lt;font style=&quot;font-size: 6px;&quot;&gt;工作负载&lt;/font&gt;" style="text;html=1;align=center;verticalAlign=middle;whiteSpace=wrap;rounded=0;fontStyle=1" vertex="1" parent="1">
          <mxGeometry x="578.7400000000001" y="1244.3000000000006" width="37" height="10.5" as="geometry" />
        </mxCell>
        <mxCell id="gk1aNY16_VAk6JklORu2-239" value="" style="shape=cube;whiteSpace=wrap;html=1;boundedLbl=1;backgroundOutline=1;darkOpacity=0.05;darkOpacity2=0.1;size=9;rotation=0;movable=1;resizable=1;rotatable=1;deletable=1;editable=1;locked=0;connectable=1;fillColor=#fff2cc;strokeColor=#000000;" vertex="1" parent="1">
          <mxGeometry x="584.1200000000001" y="1138.3200000000002" width="59" height="58.68" as="geometry" />
        </mxCell>
        <mxCell id="gk1aNY16_VAk6JklORu2-240" value="" style="rounded=1;whiteSpace=wrap;html=1;fillColor=#dae8fc;strokeColor=#6c8ebf;movable=1;resizable=1;rotatable=1;deletable=1;editable=1;locked=0;connectable=1;" vertex="1" parent="1">
          <mxGeometry x="602.2400000000002" y="1179.1900000000003" width="12" height="10" as="geometry" />
        </mxCell>
        <mxCell id="gk1aNY16_VAk6JklORu2-241" value="" style="endArrow=openThin;html=1;rounded=0;endFill=0;endSize=3;dashed=1;edgeStyle=orthogonalEdgeStyle;entryX=0.5;entryY=1;entryDx=0;entryDy=0;entryPerimeter=0;exitX=0.5;exitY=0;exitDx=0;exitDy=0;" edge="1" parent="1" source="gk1aNY16_VAk6JklORu2-240">
          <mxGeometry width="50" height="50" relative="1" as="geometry">
            <mxPoint x="638.7400000000002" y="1185.4999999999998" as="sourcePoint" />
            <mxPoint x="608.2400000000002" y="1169.9999999999998" as="targetPoint" />
            <Array as="points">
              <mxPoint x="608.7400000000002" y="1169.9999999999998" />
            </Array>
          </mxGeometry>
        </mxCell>
        <mxCell id="gk1aNY16_VAk6JklORu2-242" value="&amp;lt;/&amp;gt;" style="rounded=1;arcSize=5;fillColor=#666666;strokeColor=none;fontColor=#ffffff;align=center;verticalAlign=middle;whiteSpace=wrap;fontSize=10;fontStyle=1;html=1;sketch=0;" vertex="1" parent="1">
          <mxGeometry x="619.7400000000002" y="1176.68" width="17.5" height="17.37" as="geometry" />
        </mxCell>
        <mxCell id="gk1aNY16_VAk6JklORu2-243" value="" style="verticalLabelPosition=bottom;verticalAlign=top;html=1;shape=mxgraph.basic.diag_round_rect;dx=6;whiteSpace=wrap;container=0;" vertex="1" parent="1">
          <mxGeometry x="603.7400000000002" y="1203.8700000000001" width="10.5" height="16.13" as="geometry" />
        </mxCell>
        <mxCell id="gk1aNY16_VAk6JklORu2-244" value="" style="image;html=1;image=img/lib/clip_art/networking/Ip_Camera_128x128.png;container=0;" vertex="1" parent="1">
          <mxGeometry x="606.2400000000002" y="1208.01" width="16.5" height="12.86" as="geometry" />
        </mxCell>
        <mxCell id="gk1aNY16_VAk6JklORu2-245" value="" style="endArrow=classic;html=1;rounded=0;entryX=0.5;entryY=1;entryDx=0;entryDy=0;endSize=1;startSize=3;dashed=1;exitX=0.429;exitY=0.034;exitDx=0;exitDy=0;exitPerimeter=0;" edge="1" parent="1" source="gk1aNY16_VAk6JklORu2-243" target="gk1aNY16_VAk6JklORu2-240">
          <mxGeometry width="50" height="50" relative="1" as="geometry">
            <mxPoint x="640.2400000000002" y="1213.9999999999998" as="sourcePoint" />
            <mxPoint x="624.4900000000002" y="1214.9999999999998" as="targetPoint" />
          </mxGeometry>
        </mxCell>
        <mxCell id="gk1aNY16_VAk6JklORu2-246" value="" style="verticalLabelPosition=bottom;html=1;verticalAlign=top;align=center;strokeColor=none;fillColor=#00BEF2;shape=mxgraph.azure.scheduler;pointerEvents=1;" vertex="1" parent="1">
          <mxGeometry x="599.2400000000002" y="1150.1900000000003" width="16" height="20" as="geometry" />
        </mxCell>
        <mxCell id="gk1aNY16_VAk6JklORu2-247" value="" style="endArrow=openThin;html=1;rounded=0;endFill=0;endSize=3;dashed=1;edgeStyle=orthogonalEdgeStyle;entryX=0.5;entryY=0;entryDx=0;entryDy=0;exitX=1;exitY=0.45;exitDx=0;exitDy=0;exitPerimeter=0;" edge="1" parent="1" target="gk1aNY16_VAk6JklORu2-242">
          <mxGeometry width="50" height="50" relative="1" as="geometry">
            <mxPoint x="615.2400000000002" y="1161.1900000000003" as="sourcePoint" />
            <mxPoint x="628.4900000000002" y="1178.68" as="targetPoint" />
            <Array as="points">
              <mxPoint x="628" y="1160.9999999999998" />
            </Array>
          </mxGeometry>
        </mxCell>
        <mxCell id="gk1aNY16_VAk6JklORu2-248" value="" style="shape=cube;whiteSpace=wrap;html=1;boundedLbl=1;backgroundOutline=1;darkOpacity=0.05;darkOpacity2=0.1;size=9;rotation=0;movable=1;resizable=1;rotatable=1;deletable=1;editable=1;locked=0;connectable=1;fillColor=#FDE3E1;strokeColor=#000000;" vertex="1" parent="1">
          <mxGeometry x="627.3700000000001" y="1095.3200000000002" width="38.88" height="40.68" as="geometry" />
        </mxCell>
        <mxCell id="gk1aNY16_VAk6JklORu2-249" value="" style="verticalLabelPosition=bottom;html=1;verticalAlign=top;align=center;strokeColor=none;fillColor=#00BEF2;shape=mxgraph.azure.scheduler;pointerEvents=1;" vertex="1" parent="1">
          <mxGeometry x="642.3700000000001" y="1111.19" width="16" height="20" as="geometry" />
        </mxCell>
        <mxCell id="gk1aNY16_VAk6JklORu2-250" value="" style="shape=cube;whiteSpace=wrap;html=1;boundedLbl=1;backgroundOutline=1;darkOpacity=0.05;darkOpacity2=0.1;size=9;rotation=0;movable=1;resizable=1;rotatable=1;deletable=1;editable=1;locked=0;connectable=1;fillColor=#fff2cc;strokeColor=#000000;" vertex="1" parent="1">
          <mxGeometry x="658.37" y="1140" width="38.88" height="57" as="geometry" />
        </mxCell>
        <mxCell id="gk1aNY16_VAk6JklORu2-251" value="&amp;lt;/&amp;gt;" style="rounded=1;arcSize=5;fillColor=#666666;strokeColor=none;fontColor=#ffffff;align=center;verticalAlign=middle;whiteSpace=wrap;fontSize=10;fontStyle=1;html=1;sketch=0;" vertex="1" parent="1">
          <mxGeometry x="675.1200000000003" y="1177.1900000000003" width="17.5" height="17.37" as="geometry" />
        </mxCell>
        <mxCell id="gk1aNY16_VAk6JklORu2-252" value="" style="endArrow=openThin;html=1;rounded=0;endFill=0;endSize=3;dashed=1;edgeStyle=orthogonalEdgeStyle;entryX=0.04;entryY=0.48;entryDx=0;entryDy=0;exitX=0.6;exitY=0.03;exitDx=0;exitDy=0;exitPerimeter=0;entryPerimeter=0;" edge="1" parent="1" source="gk1aNY16_VAk6JklORu2-246" target="gk1aNY16_VAk6JklORu2-249">
          <mxGeometry width="50" height="50" relative="1" as="geometry">
            <mxPoint x="625" y="1169.3200000000004" as="sourcePoint" />
            <mxPoint x="638" y="1186.3200000000004" as="targetPoint" />
            <Array as="points">
              <mxPoint x="609" y="1121.3200000000002" />
              <mxPoint x="638" y="1121.3200000000002" />
            </Array>
          </mxGeometry>
        </mxCell>
        <mxCell id="gk1aNY16_VAk6JklORu2-253" value="" style="endArrow=openThin;html=1;rounded=0;endFill=0;endSize=3;dashed=1;edgeStyle=orthogonalEdgeStyle;exitX=0.064;exitY=0.813;exitDx=0;exitDy=0;exitPerimeter=0;" edge="1" parent="1">
          <mxGeometry width="50" height="50" relative="1" as="geometry">
            <mxPoint x="660.1000000000004" y="1119.71" as="sourcePoint" />
            <mxPoint x="684.05" y="1151.19" as="targetPoint" />
            <Array as="points">
              <mxPoint x="684" y="1120" />
            </Array>
          </mxGeometry>
        </mxCell>
        <mxCell id="gk1aNY16_VAk6JklORu2-263" value="" style="verticalLabelPosition=bottom;html=1;verticalAlign=top;align=center;strokeColor=none;fillColor=#00BEF2;shape=mxgraph.azure.scheduler;pointerEvents=1;" vertex="1" parent="1">
          <mxGeometry x="567.1200000000001" y="1228.1600000000005" width="14" height="16" as="geometry" />
        </mxCell>
        <mxCell id="gk1aNY16_VAk6JklORu2-264" value="&lt;span style=&quot;font-size: 6px;&quot;&gt;调度器&lt;/span&gt;" style="text;html=1;align=center;verticalAlign=middle;whiteSpace=wrap;rounded=0;fontStyle=1" vertex="1" parent="1">
          <mxGeometry x="578.18" y="1228.35" width="31.82" height="10.5" as="geometry" />
        </mxCell>
        <mxCell id="gk1aNY16_VAk6JklORu2-265" value="" style="shape=image;verticalLabelPosition=bottom;labelBackgroundColor=default;verticalAlign=top;aspect=fixed;imageAspect=0;image=data:image/png,iVBORw0KGgoAAAANSUhEUgAAAKAAAACoCAYAAABnnOVAAAAAAXNSR0IArs4c6QAAAERlWElmTU0AKgAAAAgAAYdpAAQAAAABAAAAGgAAAAAAA6ABAAMAAAABAAEAAKACAAQAAAABAAAAoKADAAQAAAABAAAAqAAAAACXnFJIAAAACXBIWXMAAD2EAAA9hAHVrK90AAAGpUlEQVR4Ae3cv6scVRjG8dmbVPYWCaa4ZZr8AaKFWAjmWijERrAO2Fn6MxGSIhdtVEgj2AiSC1p4CaSIetFKUsU/QEz8G4Igic4RJsze3blnZ+acmefs8w0Md3+cOfO+7/Nhdouwi6qq/q0P/m3/BH6qW3y1Pv5WanVHqRhqyTqBl+rdb9fHM1mv0nNzAPYcWOHLA8LD+pBBCMDCRQ0oXwrhom6g8zvgl9evVW+98fqAHjlFZQJPHj+pLl2+XN395dfjJYXvhHv18ej4G1M+P1Vf7ErXBW/f/bE6d/ZsdeH8+a4lvC4+gcXOorp08WJ17/f71R8PHrSr3a2fPF8fB/XxT/uNKR+fCDAUAsIp48hzLWWEK98BP/v4o5UpvPPe+9U3332/8jovlDOBnVM71cHNm9XLL75wvOhZvxOu3AG/+nS/eu7MmerO0dFSodwJl8ZR5BPFO+HKHTBM9s3X9iruhEUaixatdidcCxCE0RyLXqCEsBMgCIs2Fi1eBeGJAEEYzbHoBQoIowBBWLSxaPFzI9wIIAijORa9YE6EGwMEYdHGosXPhbAXQBBGcyx6wRwIewMEYdHGosVPjXAQQBBGcyx6wZQIBwMEYdHGosVPhXAUQBBGcyx6wRQIRwMEYdHGosXnRpgEIAijORa9ICfCZABBWLSxaPG5ECYFCMJojkUvyIEwOUAQFm0sWnxqhFkAgjCaY9ELUiLMBhCERRuLFp8KYVaAIIzmWPSCFAizAwRh0caixY9FOAlAEEZzLHrBGISTAQRh0caixQ9FOClAEEZzLHrBEISTAwRh0caixfdFOAtAEEZzLHpBH4SzAQRh0caixW+KcOX3Af+691t089QLbv1wWL179ZPU27Kf9gTC7xO+MusdsJlP12/RNO/zdysnEH6V620JgGG8INxKZLGmdmUANghjFfP+dk3gtHo7jx/+qV4i9W04geuff1F9eGN/abXUHXCpMp5YTACAFjHrNglA3WwsKgOgRcy6TQJQNxuLygBoEbNukwDUzcaiMgBaxKzbJAB1s7GoDIAWMes2CUDdbCwqA6BFzLpNAlA3G4vKAGgRs26TANTNxqIyAFrErNskAHWzsagMgBYx6zYJQN1sLCoDoEXMuk0CUDcbi8oAaBGzbpMA1M3GojIAWsSs2yQAdbOxqAyAFjHrNglA3WwsKgOgRcy6TQJQNxuLygBoEbNukwDUzcaiMgBaxKzbJAB1s7GoDIAWMes2CUDdbCwqA6BFzLpNAlA3G4vKAGgRs26TANTNxqIyAFrErNskAHWzsagMgBYx6zYJQN1sLCoDoEXMuk0CUDcbi8oAaBGzbpMA1M3GojIAWsSs2yQAdbOxqAyAFjHrNglA3WwsKgOgRcy6TQJQNxuLygBoEbNukwDUzcaiMgBaxKzbJAB1s7GoDIAWMes2CUDdbCwqA6BFzLpNAlA3G4vKAGgRs26TANTNxqIyAFrErNskAHWzsagMgBYx6zYJQN1sLCoDoEXMuk0CUDcbi8oAaBGzbpMA1M3GojIAWsSs2yQAdbOxqAyAFjHrNglA3WwsKgOgRcy6TQJQNxuLygBoEbNukwDUzcaiMgBaxKzbJAB1s7GoDIAWMes2CUDdbCwqA6BFzLpNAlA3G4vKAGgRs26TANTNxqKyFYAf3Ni3aJwmNSYQAD5sl/L1rYMKhO2J8DjnBALAvfoAYc4ps3fnBALA+/UBws4R8UbOCTTfAUGYc8rs3TmBBmBYAMLOMfFGrgm0AYZrgDDXpNl37QSOAwyLQLh2VLyYYwLrAIbrgDDHtNlzZQJdAMNCEK6MixdST+AkgOFaIEw9cfZbmkAMYFgMwqWR8STlBDYBGK4HwpRTZ6+nE9gUYDgBhE/HxoNUE+gDMFwThKkmzz7/T6AvwHASCMGTbAJDAIIw2fjZaChAEGInyQTGAARhkgi8NxkLEITefkZ3nwIgCEfH4LtBKoAg9DU0qvOUAEE4KgrPk1MDBKGno8Fd5wAIwsFx+J2YCyAI/SwN6jgnQBAOisTrpNwAQejlqXe3UwAEYe9YfE6YCiAIfUz16nRKgCDsFY3H4tMztNn8f8LD+trnmuuHX+Xin98Epr4DNhNuEK78KlezgL8eE5gLYJjuWoQeY6fLZgJzfAQ31w5/G4RLH8ftBXd+Pmo/5XHBE1iX5UKknwt1HZ0IRWqkjPQTuDbnR3C7neZOuPSdsL2Ax9s5ARWAYbog3E5jJ3al8hHcLnK3fnK1Pp5tv8jjrZzAt1vZFU2VM4H/APdGE8uvIqArAAAAAElFTkSuQmCC;" vertex="1" parent="1">
          <mxGeometry x="660.8700000000001" y="1229.16" width="12.37" height="12.99" as="geometry" />
        </mxCell>
        <mxCell id="gk1aNY16_VAk6JklORu2-266" value="&lt;font style=&quot;font-size: 6px;&quot;&gt;边端集群主节点&lt;/font&gt;" style="text;html=1;align=center;verticalAlign=middle;whiteSpace=wrap;rounded=0;fontStyle=1" vertex="1" parent="1">
          <mxGeometry x="671.74" y="1229.4" width="54.26" height="10.5" as="geometry" />
        </mxCell>
        <mxCell id="gk1aNY16_VAk6JklORu2-267" value="&lt;font style=&quot;font-size: 6px;&quot;&gt;边端集群从节点&lt;/font&gt;" style="text;html=1;align=center;verticalAlign=middle;whiteSpace=wrap;rounded=0;fontStyle=1" vertex="1" parent="1">
          <mxGeometry x="675.25" y="1244.1500000000003" width="46.75" height="10.5" as="geometry" />
        </mxCell>
        <mxCell id="gk1aNY16_VAk6JklORu2-268" value="" style="shape=image;verticalLabelPosition=bottom;labelBackgroundColor=default;verticalAlign=top;aspect=fixed;imageAspect=0;image=data:image/png,iVBORw0KGgoAAAANSUhEUgAAAKAAAACoCAYAAABnnOVAAAAAAXNSR0IArs4c6QAAAERlWElmTU0AKgAAAAgAAYdpAAQAAAABAAAAGgAAAAAAA6ABAAMAAAABAAEAAKACAAQAAAABAAAAoKADAAQAAAABAAAAqAAAAACXnFJIAAAACXBIWXMAAD2EAAA9hAHVrK90AAAHFUlEQVR4Ae3cT4hVZRzG8dd0V2RYZthCWgVBklgDBSZYhAsXQi7cGLSYQYTa1Uom0DbiLoigdi2CVm1cGLRJwxiRzKGBpFWLNooDVvMvauo90B3OeM+9Z+697zn3ue/zFQ7dOWfmnN/zez7qZHZDCOFKPP7lyH4Hd2LHU/GQ+vGQ1DQM0+QGdsebX4qHFEIANlm53r3lEBYAd+jtiYka3IAUwgLf373Cvnv6ZPhw9kyvy5yfkA2cPf9x+OiTL8vTdhAeiyevly+0/Xp7fODb8dhX9eC5Gz+FpaWVcOTwS1WXOTchGzhyeCosLS+HuRsL5Ykfjh8cj8e38fitfKHN110Adz76SFhb+2tjBhBurGKiX6gi7AJ4/uzp8MOtn8PKytrGwkG4sYqJfqGIsAvgmekT4cTx18PX33wPwonmVj28GsIugCfffCMcPPBceHlqfyXCP+P3hK/xPWF1uxNyVglhJcCn9+4JT+15ohLh9fgvJiCcEGl9xlRB2BNgMTsI+zSYwSUFhH0BgjADZTURxo2wFiAIaxrM4PI4EW4JIAgzUFYTYVwItwwQhDUNZnB5HAgHAgjCDJTVRGgb4cAAQVjTYAaX20Q4FEAQZqCsJkJbCIcGCMKaBjO43AbCkQCCMANlNRGaRjgyQBDWNJjB5SYRJgEIwgyU1URoCmEygCCsaTCDy00gTAoQhBkoq4mQGmFygCCsaTCDyykRNgIQhBkoq4mQCmFjAEFY02AGl1MgbBRgPcLl+Nf7pd4pIgMW7UYYFWHjAPsjXIh/vR+E7ZJJ/7RRELYCEITpS1e747AIWwMIQjUy6ecZBmGrAEGYvnS1Ow6KsHWAIFQjk36eQRCOBSAI05eudsetIhwbQBCqkUk/z1YQbouPLd4j+lDn8V99cTFMvfh858NW/vnj/O3w1sxsuLd4v5Xn8RCJDdyNUxyWeIveF/Y/Gz7/9Fx4fNdOic0wRCsbKN4k84IEwCJuB2Er0XmIygYekwFYbKRA+OTuXSrLYY4WNiD3BuXP7Nsb7txd3Ih+5fJn4dArBzY+5sXkbuDqtZvh1aPTmwJI/Qq4aTI+sNgAAC1q1g0JQN1uLCYDoEXNuiEBqNuNxWQAtKhZNyQAdbuxmAyAFjXrhgSgbjcWkwHQombdkADU7cZiMgBa1KwbEoC63VhMBkCLmnVDAlC3G4vJAGhRs25IAOp2YzEZAC1q1g0JQN1uLCYDoEXNuiEBqNuNxWQAtKhZNyQAdbuxmAyAFjXrhgSgbjcWkwHQombdkADU7cZiMgBa1KwbEoC63VhMBkCLmnVDAlC3G4vJAGhRs25IAOp2YzEZAC1q1g0JQN1uLCYDoEXNuiEBqNuNxWQAtKhZNyQAdbuxmAyAFjXrhgSgbjcWkwHQombdkADU7cZiMgBa1KwbEoC63VhMBkCLmnVDAlC3G4vJAGhRs25IAOp2YzEZAC1q1g0JQN1uLCYDoEXNuiEBqNuNxWQAtKhZNyQAdbuxmAyAFjXrhgSgbjcWkwHQombdkADU7cZiMgBa1KwbEoC63VhMBkCLmnVDAlC3G4vJAGhRs25IAOp2YzEZAC1q1g0JQN1uLCYDoEXNuiEBqNuNxWQAtKhZNyQAdbuxmAyAFjXrhgSgbjcWkwHQombdkADU7cZiMgBa1KwbEoC63VhMBkCLmnVDAlC3G4vJAGhRs25IAOp2YzEZAC1q1g0JQN1uLCYDoEXNuiEBqNuNxWQAtKhZN2QXwJWVNd1pmSy7DXQBfOe9i2F1dTW7oATS3EAB8Hp5tHuL98Op6Q9AWF4KrxvbQAHw/XhcLj/h2twtEJYXwuvGNlAAXI/HsXiAsLE1c+NeG+h8D/hP/AQQ9toS5xvbQAdg8QAQNrZmbtxrA2WAxeeAsNemON/IBh4EWDykP8IV/oimkSZMb1oFsD/CmfhHNCA05ZI+di+AIEy/a+5YsYF+AEFYsTBOpd1AHUAQpt03d3tgA1sBCMIHlsaH6TawVYAgTLdz7lTawCAAQVhaHC/TbGBQgCBMs3fu8v8GhgEIQvgk28CwAEGYrALvG40CEITedpKkHxVgDcJZ/rNdkpryvUkKgH0QzodTMyDMl8/oyVIBBOHoXVjeISVAEFoSGi10aoAgHK0Pu69uAiAI7RgNH7gpgCAcvhOrr2wSIAitKA0XtmmAIByuF5uvagMgCG04DR60LYAgHLwbi69oEyAILUgNFrJtgLUI19eLt6rhh8sGxgGw2G2P//l9Ptz+5VeX3ZMzbmBcAIvlVyL8/Y8lijHawI4xZ+0gvBTnOFo1y9yNhbC0zNuBVO1m0s59d+1m18jbus6M58T2+NieCMczEk9tYQNXx/lbcDlf51fCTW+SWf4EXue5ARWAxXZBmKexvqlUfgsuD1n8pDgXj4Plk7zOcgMLWaYi1ORs4D8jI2SYkf+zHAAAAABJRU5ErkJggg==;" vertex="1" parent="1">
          <mxGeometry x="661.6300000000001" y="1244.1500000000003" width="12.37" height="12.99" as="geometry" />
        </mxCell>
        <mxCell id="gk1aNY16_VAk6JklORu2-269" value="" style="rounded=0;whiteSpace=wrap;html=1;dashed=1;" vertex="1" parent="1">
          <mxGeometry x="614.6200000000001" y="1244.1600000000003" width="13.37" height="13" as="geometry" />
        </mxCell>
        <mxCell id="gk1aNY16_VAk6JklORu2-280" value="" style="verticalLabelPosition=bottom;html=1;verticalAlign=top;align=center;strokeColor=none;fillColor=#00BEF2;shape=mxgraph.azure.scheduler;pointerEvents=1;" vertex="1" parent="1">
          <mxGeometry x="673.8700000000002" y="1151.1900000000003" width="16" height="20" as="geometry" />
        </mxCell>
        <mxCell id="gk1aNY16_VAk6JklORu2-282" value="" style="endArrow=openThin;html=1;rounded=0;endFill=0;endSize=3;dashed=1;entryX=0.447;entryY=0.022;entryDx=0;entryDy=0;entryPerimeter=0;exitX=0.57;exitY=1;exitDx=0;exitDy=0;exitPerimeter=0;" edge="1" parent="1" source="gk1aNY16_VAk6JklORu2-280" target="gk1aNY16_VAk6JklORu2-251">
          <mxGeometry width="50" height="50" relative="1" as="geometry">
            <mxPoint x="618" y="1189" as="sourcePoint" />
            <mxPoint x="618.2400000000002" y="1179.9999999999998" as="targetPoint" />
          </mxGeometry>
        </mxCell>
        <mxCell id="gk1aNY16_VAk6JklORu2-292" value="" style="shape=image;verticalLabelPosition=bottom;labelBackgroundColor=default;verticalAlign=top;aspect=fixed;imageAspect=0;image=data:image/png,iVBORw0KGgoAAAANSUhEUgAAAD4AAABQCAYAAABBP8ZuAAAAAXNSR0IArs4c6QAAAJZlWElmTU0AKgAAAAgABAEaAAUAAAABAAAAPgEbAAUAAAABAAAARgEoAAMAAAABAAIAAIdpAAQAAAABAAAATgAAAAAAAACQAAAAAQAAAJAAAAABAASShgAHAAAAEgAAAISgAQADAAAAAQABAACgAgAEAAAAAQAAAD6gAwAEAAAAAQAAAFAAAAAAQVNDSUkAAABTY3JlZW5zaG90Ss/qVwAAAAlwSFlzAAAWJQAAFiUBSVIk8AAAAdRpVFh0WE1MOmNvbS5hZG9iZS54bXAAAAAAADx4OnhtcG1ldGEgeG1sbnM6eD0iYWRvYmU6bnM6bWV0YS8iIHg6eG1wdGs9IlhNUCBDb3JlIDYuMC4wIj4KICAgPHJkZjpSREYgeG1sbnM6cmRmPSJodHRwOi8vd3d3LnczLm9yZy8xOTk5LzAyLzIyLXJkZi1zeW50YXgtbnMjIj4KICAgICAgPHJkZjpEZXNjcmlwdGlvbiByZGY6YWJvdXQ9IiIKICAgICAgICAgICAgeG1sbnM6ZXhpZj0iaHR0cDovL25zLmFkb2JlLmNvbS9leGlmLzEuMC8iPgogICAgICAgICA8ZXhpZjpQaXhlbFlEaW1lbnNpb24+ODA8L2V4aWY6UGl4ZWxZRGltZW5zaW9uPgogICAgICAgICA8ZXhpZjpQaXhlbFhEaW1lbnNpb24+NjI8L2V4aWY6UGl4ZWxYRGltZW5zaW9uPgogICAgICAgICA8ZXhpZjpVc2VyQ29tbWVudD5TY3JlZW5zaG90PC9leGlmOlVzZXJDb21tZW50PgogICAgICA8L3JkZjpEZXNjcmlwdGlvbj4KICAgPC9yZGY6UkRGPgo8L3g6eG1wbWV0YT4K32RaBwAAABxpRE9UAAAAAgAAAAAAAAAoAAAAKAAAACgAAAAoAAAFwjM72dYAAAWOSURBVHgB7JkJTJRHFMf/CMoppVZURKgcUdF6xIOIYksqaAWrFlERRItiitxHFanVAkFkDVegBcGjIg1C8YJaSogFT1RKgoBWy6XBpRWstCAFBITuG/OtLCxxIW4+Ephk833z5pv53m9m3vvem1XobirqxjAsCiPgw2zVR1Z8mC04RlZ8ZMWHyQyMbPWhsNDt7R1QVFQU/UbJXZ0hs+JdXV0wtdiGGIE/zM3mDR/wmPhUBByIQ6PwClRUxgwP8O9/yIKLRyjMTGfjeu5xuUPTC3jd6iVl5QgRHMO5rDwG+6WXE0L374KSkpLc7ZwX8P9aWmGy0A6PhXVSVzfioA/8PbdIbXtbQl7A29raIYg5ifb2ToRFnGAso0crYbf3Vna/3WkNjAymvC1GqePwAs5pUlffgEnGK1jVzHQOCi69mgSuXZ5XXsHTz+bC3vkrxhfguw3hwZ7yZJUYm1dwV58wJJ44xxTKPhuLVVZLJJSTZ4VX8OnzbVFeWcM8eENNPjTHqsuTVWJs3sD//OspdKevYsosmGeCoqspEorJu8IbeGpGDhx3fM34fN0dEHXIT96sEuPzBr7TMxTHki8wZc6nRmDdagsJxeRd4Q3ceO46VD0UQkFBAU8fXsJ7496RiZWSmcpqIevb0xn+erkQ72ppYuYMQ5lifV7AH9fWQd/EhoF+MNMIJQWn4eYXDh83B8yYNlXqBNy4VYLAoG9RXPIH9PUmsS/AoSAPUODz8mUXgsOTcDYzD03PmxGyzxXbHFZj1Kj+01tewElBO6c9DHC5hSm0x2uh7F4lCi+fgpqqigT4ixftLGuLS0wXxfCKSEkKwUZbK/bMs4ZGVD8SYtH8Waze0dEJazsvXMovxJv8Bi/g8Ucz4O4vEANO0B6HW3knYfD+ZLGMu9n7TRwE0clQVh6DnzNiQBNF5VpBMazWuovC3g5UlWaK+17MuYZPN/qyCWx+co2ZEjdWzysv4DcLS7FspQvbonNnT8OZFAGMDfV66sXui4p/x+KPP2fPkRlEh7/2/EuttqPgdil7ruLOeXF/6rPoo1cxv/BBNnQnT+gzLgl4AacXk2NrbX0BsvH+CpkDmYW6miqqyzJBO4MK2bSGjjko2SEwAuQKZ0bkNBtrr2CshhrXJHHlDVxCi34qRnPWimy4Fk721jglsm2uPCh/xNJaqm/dbIPkxGCuSeQPYnE45hRzkveLzojlvW+GLHhjUzO0plgwfSl5oSSGK9m5N2Bj582cXenNNJhMN2BNnZ0voWdijSd1z7BlkzVSjr6eLK4vdx2y4MLaegZBimamRWGN9YeczuDAd7nYIT5qr1ieJsr2NouyPTqlvZ2fDAqF+yuDBi+9W4GOzs7+xpUqpwDDcKqu1LbeQgpUaMWfN7cg9cRBbLZbyR7p7u7GWnt//PTLVUSG+cLPw5HJ6582YI6ZPSjH3+OzFYIQr95DStQHBd7wTxO0DSxByg2kbPjMEj8mh8vcxXtPBGKPpGH1J8uQlR6FltY2+ARE4vrNO9BQV4OqqjLyLh4BHWXZOu5G3pXfsGn9CpxMCHpj9DYocM5zykwgepACk/zsRJgueBVsyNKXvLa9cyCysq9iso42KJihM/ek2H0gU6BghXYAfR00NdUR6OcMt50bZBl6cJ8zCi8TjvXvMXu/mSKuC6cjYbPSvHeTTHWCpM+f6cJZUFVRFvehiSm5W85i9GnG+mK5LDeDWnHuAIGiqaWL50Jn4ni27Xq+kIKUe/ermej4dwdAB4hDqQwYnPO2lAXlnI+Dnu7EPjwVVTVYYrkdfz/7lyUM+wNc+jzDt2DA4NwBIX0upNkreVez5c4s8HDdsR4J0YF8M0p9/4DByZPXio6NpK00eVeLVV+A4mU6WDiTclju/4hIpZJB+D8AAAD//2TLgAYAAAYJSURBVO1ZCVSNWRz/laGyhCwjnCzDyIgih2xPm2yVfZkmQ7QokRZbTZ1CHrJN4RClDBpMWSYmamReMowwpiYULaJIkixTqObd+85zvPfV8736mu+dM91z3vu+//p+v7vf+9RqytNqwEF5/74KtnM88UviZYwyMUTi6d3Q0tTgIHPjpFDjirij+zpEHDyF/v164dL5COi0124cxBxl5YR4oDAcQeJPV91O+P3XA9Dr3oUjeI2XpsHESSuT1m6r3RqihH0YZNC38dBymLlBxM+eT8WUuV5QV1dHQlwYzARDOYTWuKnqTTztZiZMJ7rgzT8ViIkMxpwZVo2LlOPs9SKek/cIIywcUPy0FNs3emG5m12DYJHKizx4GhWVlXBzmoWWWpqs8t2+m4voI/GwNBsOS9NhrGKkTkoTL3lWhpGWC5F9/wFMxxjDcf5UtG7VEqNHGKGDTltpXvq8mHIdzsuCUfbiJfbv9IftJIGMXSoItx6Ab9AuKgoD3bHaa4HUVOezuroavQxs8eDhY2hqtkBeRjw+76xTp7+8QSnipGUsrF1x5Vq6fB6oqalhnLjmj0YL0a5tG2ofbbUIqVdu0Xdjo/5IE/3AiCMKF48NCD8QR21LXeYgNGRFrX4fKysq3kK7mwDv3r2n6sxrx+lS+rGPonfWxKuqqjH9Gx+cPitSlA8GX32BlHP7KXlz68VIFqVRf0XE7+UUwNt3O1q11ML6ADf07tlN4W9IjaSyYn46BytzE6zxdpCqWT1ZE3f1FGJPRCyrpBbi8XZo3zoEh0RgZ/gxGhPk64KA1U6s4v8LJ1bEow7/DAfXINqdhxjqw3BgX+h26YjmzT9DXn4RHe+k1Z4UlzIwkyHgYG+D8NDv0KyZOsMuVZAeRSY30urKFBJHujsZ58oUVsQfPirGBdE1OnOS3Vld5fGTZ7ialoFb6VkofV6OHnq6mDx+NL7so8cI+e3SDRw/mYT7OQ9BKi2/oAjTbMxwNErI8P1Ycf3P23T4pP99D+mZ95B5JxeeS+xAJkVlCiviyiRk60sIEPCbtkfjTlYeDdsm9KIkFOXYF3UCJDbqcDwqK99S15MxWzFl8lhFYQwbb8SlSEzMF9BeQuQbKYcx2LCf1KTwqdt3PEgPI7vGkrwktG+n3KGIV+LlL19DR88MZJwS4IQAIfKpcjc7H/rGM6jbECN9XBcd+lQIw84r8TPnLsF61nIKaqq1KU4c2cIAWJtib2QcFi/fQE3eS+2xJViSozbfunS8Evfx24GtYZLW2rHJGx6uX9eFU0Y/18EXR2PPU1388R10ApVxYCHwSnyoYB6dqAjOW5djWB9pu/SxoksnWR5LHyRDu00rFlRlXXgj/qL8FTr0MKfjm+zxn+Ym0X2CLDymlHknBwOGzaaGYcYDcDU5munEQsMbcXKWnzzTg0KcbmuO2EObWcAFdol3gu4+Et9VnvOxMWgpqzh5J96IrwnciY3boiiesJCVcHeRtKI8QHl55ryViD11gaoTToRhvMUIeRdWMm/EBROckHL5JgWZcfUYSNcvEB8xFV1o1NTUoHPvcSBHY7Jdfl6QrPQWV1orvBAn67Z2VwG9vdHQaEG3qYuWrEXUnkBYTxgjxcZ4/pWRDcORkpl/5PBBSE2MZPiwVfBC/FFhMbrrT5LBGB7qB6cF02R08kLonh/hsVKy1vutWIj1/m7yLqxlXoiTPx9Il31eVg4tLQ18v8nnk6QJI5vZnohPSKHkks/spTdArJnKOfJCnGAoelwCcmE5ysSI1Z8P5MaFLH/kFqhzJx0UZiUoPObK8WSIvBFnIKlFQU5fZA4ghczkZEYnxd15NsK2SN6poh5fKkvc3tGfXitF7g7AfDtrjJ3oDFHqDXqxmXUzjl6E1IPvhxCVJJ6bX4jeA20pyBlTzMVnbVN86xxA5ZD1HvBZNu8Dgfq+qCTxV6/foGNPS3rR0FOvK4qelND3tX6L4b/Ksb5cZeJUkjhBmHTxD2wTn9yelpRBMGowbCYKGjSLy7AWCypLXB4o13ITca5rVNXzNbW4qrcQ1/iaWpzrGlX1fP/bFv8Xsr0MXIdPABAAAAAASUVORK5CYII=;" vertex="1" parent="1">
          <mxGeometry x="629.24" y="1150.19" width="8" height="10.32" as="geometry" />
        </mxCell>
        <mxCell id="gk1aNY16_VAk6JklORu2-293" value="" style="shape=image;verticalLabelPosition=bottom;labelBackgroundColor=default;verticalAlign=top;aspect=fixed;imageAspect=0;image=data:image/png,iVBORw0KGgoAAAANSUhEUgAAAGwAAABICAYAAAATWxDtAAAAAXNSR0IArs4c6QAAAJZlWElmTU0AKgAAAAgABAEaAAUAAAABAAAAPgEbAAUAAAABAAAARgEoAAMAAAABAAIAAIdpAAQAAAABAAAATgAAAAAAAACQAAAAAQAAAJAAAAABAASShgAHAAAAEgAAAISgAQADAAAAAQABAACgAgAEAAAAAQAAAGygAwAEAAAAAQAAAEgAAAAAQVNDSUkAAABTY3JlZW5zaG90pCtVygAAAAlwSFlzAAAWJQAAFiUBSVIk8AAAAdVpVFh0WE1MOmNvbS5hZG9iZS54bXAAAAAAADx4OnhtcG1ldGEgeG1sbnM6eD0iYWRvYmU6bnM6bWV0YS8iIHg6eG1wdGs9IlhNUCBDb3JlIDYuMC4wIj4KICAgPHJkZjpSREYgeG1sbnM6cmRmPSJodHRwOi8vd3d3LnczLm9yZy8xOTk5LzAyLzIyLXJkZi1zeW50YXgtbnMjIj4KICAgICAgPHJkZjpEZXNjcmlwdGlvbiByZGY6YWJvdXQ9IiIKICAgICAgICAgICAgeG1sbnM6ZXhpZj0iaHR0cDovL25zLmFkb2JlLmNvbS9leGlmLzEuMC8iPgogICAgICAgICA8ZXhpZjpQaXhlbFlEaW1lbnNpb24+NzI8L2V4aWY6UGl4ZWxZRGltZW5zaW9uPgogICAgICAgICA8ZXhpZjpQaXhlbFhEaW1lbnNpb24+MTA4PC9leGlmOlBpeGVsWERpbWVuc2lvbj4KICAgICAgICAgPGV4aWY6VXNlckNvbW1lbnQ+U2NyZWVuc2hvdDwvZXhpZjpVc2VyQ29tbWVudD4KICAgICAgPC9yZGY6RGVzY3JpcHRpb24+CiAgIDwvcmRmOlJERj4KPC94OnhtcG1ldGE+Cn9JN9EAAAAcaURPVAAAAAIAAAAAAAAAJAAAACgAAAAkAAAAJAAABbQ8gXubAAAFgElEQVR4AexbWyhlXxhfxm0ochsZ97tCaRKaRo3yJBLKnRIKj2qGV9TIZR5MkzzMoJTyIF5QiFxyyzxMZDTjUkwzJTHkmtv3X9+a9nI2Z3P2/vP/jzlr1Wmv/a1vrbP9fue77G8tJkAbEe3BIGAiCHswXLEHFYQ9LL6IIEwQ9sAQuKPHPTk5IaampuxzR0vqXUZYmF5Y1AkvLi5IZGQkaWhoINHR0eomq9QWhKkETJ86ElVeXk52d3fJ48eP9ancnQyzRNG0I9DS0gKPHj2CFy9eaF9ExUyiQleo6iDw+fNnSElJwXdY9nn16hUcHx/D2dmZjtbddwVhKjHd398HDw8PTpREmHR9+/atyhXVqYsYpjK6UCsitbW1BLPC6upqNtvc3Jy8fv2a9fPz84mfn5/KVQ1XF4QZjpVMc2Njg7i4uDDZ8+fPyeTkpGz83m7UGaTQlhDo6OjgbpFmiJL43q8ihmmEuKioiBPW19encRX104RL1Oi7goKCyLdv31hlY3t7m9ja2mpcSd00QZg6vJj2z58/iZubG+uHh4eTT58+aVhF4xT1RilmtLe3c3dYWlr6nwIiYpgGuAsLCzlh3d3dGlbQPkW4RA2eyd/fn6ysrBATExOyublJHB0dNayiccptXB8dHcG7d+/g48ePt6kaxfj6+jq3rtDQUDg/PwfMGBcXF2/9+3d2dmB8fBy+fv3KdVdXV2F0dBTW1ta4TF+nrq4ORkZGQNElYl3s/fv34Orqyh4wOTlZ3zpGJ+vs7OSExcbGQkZGBoSEhMDBwYFeLA4PD4FWQcDHxwdsbGwgMTERhoaGuO7Y2Bjk5uaChYUFZGZmArVcPiZ1Tk9PGQ/Uoq8TRksu0NTUBO7u7vzBqPGCIOw3fI2NjTJcnJ2dAa1EX5uYmADqPpn+y5cvAS1MalNTU7L74eFhpmdtbQ00C5XU+BUtG38Y3MKQRXR7Xl5esgdCsgRhHDegJSigO8sMk7CwMFhaWroc1Okh6Pb29kwvISGBVfKl4fj4eCbPy8uTROxKXxGYvKamRiaXbpBwTlhxcTEgu2lpaVBVVQX4y5HIEoRJkP2+Li8vw/z8vFx45Q5dH+JmZWUls5iBgQGOa05OjmyWRCRmoUqNE4aBcG9vj+vh/o4gjMOhqoNkSthh/NJtb9684WMfPnzQHQJMYnAeYq/UOGFXFXAx6UvxKmLYVYSU79va2jh2V5OI9PR0NoYJhO4Yuju6TcPGsLCs1BQJw61vQZgSbDfLsfqB2GGIoQd0ZMoRERFsLCsrSybHjFzCG12uUhOEKSHzL+QFBQUM/GfPnl1bBQmztLQEzPqkhscKWAZISU5KSpLEeq+KlY7W1laCu6dSoy6RdHV1SbcP9jo3N0doRqzq+Wm2R3x9fQ2eU19fT8rKykhgYCChuQGfNzs7S6Kiolhl/9evX6xSgoOVlZWkoqKC2NnZkS9fvpCnT5/yOdc6emmkwr/RJW5tbbETThQE7n4M6aempirBpFeOKT097sa+g5LEdLBKQYmA7OxsJu/v72dyrEXiawItb8Hg4KDe9XSFRuUSdasUhhCFOhiHZmZmdDEzqN/b2wsODg7M/Xl6ekJAQABQr8XmYinLzMwMvL29WYUjLi5O5iJv+gKjIqykpESVZSGoPT09N+F34xgWI7DaoVs7lCZgDMOyFJ7CUtOMKoZJu8Q06BN68JPFCvpiSw3pstGSEVlYWGCC5uZmWRy/1Pofe0rs/m0x7Pv378y6goODFd0P3fIHJycnpofVnj+xGY1LlE45KcUjemwNaCbIyMIy3Z/a7t0lTk9PE7pXdC8+5MmTJ4QWVg1aG//D5MePH4Se2r2mT7dGSExMDDubQd+DCE1O7v3fhq49hIGCfwAAAP//Yj5VhQAABdRJREFU7VtrKJ5vGL/lFFZjDjllX5xWRCiKNQvTWgnl9EUNSaEcUsgHSvZBjWjULHzwgbQ156IcyiGRGmofxqJktDFmJMa9+3r+Pff7vj2H937e1/99Z3vuenpv13397sP1e+7TdT0QlkidnZ0YIUSflJQUCU15cWFhIa1Du76byh8eHsp3QE/p5eUlfvr0KdfH6OhofHZ2pgdh3mIk1fxtIezbt29SQ2CS5+bmcmQ9ePAAHxwcMGHMqWQBjZO3XZC6urpQTk4OlZMZht69e0f/Zs20tLSgV69esaor1ltcXESOjo6KcQCora1FdXV1yNPTEy0sLCAfHx+D6jEpSOptuakZJlW/ueVv3rzhZtbdu3fxhw8fzN0d5vb/9yWRuScmVBwZGcFWVlbYxsYGT05OmrBl45v65whbWlrCDg4O2MLCAvf29hpvQRPX8E8Rtrm5id3c3LilsKmp6UZMfXp6iltbW3FjYyOGPEu6uLjAsCTX19djpadcScI6Ojq4gZENlfs19FjPMgBT6Hz9+hX7+flxY4mNjcU9PT34/fv3WOyUOTU1xem6urrigYEB2e41NDRQO7148UJWly/k90+wbUlJCS9m+pUkjJygaEegYrir3NYEb35UVJTOePgXEZbGJ0+e4O/fv9PhwX2MLw8PD6dysUx+fj7VLS4uFlMRyGpqaigmPT1dUC4nECXs/PwcBwYG0kqh8+Toyzzl5Ro0ddmvX79wUlKSzlh4MrR/g4KCKGmPHz+m+voI+/TpE1d/VlYWhiWXJe3u7uK0tDScmpqKV1dXWSBUhxL28+dPPD8/j2EpDA4Oph3WHlRMTAzu6+vDKysrf7xHgB9hQUGB6Fi0x8Xn4+Li8JcvX3BRURHFkHsaX9Uf8UsvzuPj4ygxMZH0nS2RtReRjZtN2Uxa3d3d6Pnz54gseygsLAyFhIQgDw8PZG1tjba2thCZHWhjYwPt7+8LeggYwL5+/RpZWloKyrUFV1dXiKxKiJw+tcV682SSoDt37ujV01aghGkL/5b8zs4OIvcsFB8fz3kzpMa1t7eHwGNCLtCInNrQ/fv30bNnz5C/v78oZGZmBvX39yOyBHKEb29vI/AEkdVHVB+ExEeJ3r59i9bW1riHLIXci/Ljxw9kb28viRMU/BHz/JZ1Ynl5GRPXnc4+//LlS9lRwCk1Ly9P5/ATGhoqixErpHuYWKEqk7dAZGQk3etgX2dJ7e3tFFNaWsoC0dFRCdMxB/sfx8fHmOxtnPGdnJww2ceYwJmZmZSwwcFBJoy2kkqYtjUU5IeHh6nhk5OTmZHu7u4cDsg+OjpixoEiuNVUwhSZTKNcXl5OCWtubtYUyOQ+fvxIMRERETKawqKxsTHOB6oSJrQNkwQu1OQExz2s4Zm2tjaKqaioYGoHlCAqbmdnhwMCAtQZxmw1LUVYyvj9y9nZGV9fX2uVSmfBu8GTPDo6Kq0oUjIxMcF5mtQZJmIcfSKIp/GGB/cSSwJSwZkMOIjFnZycsMAEOiphApPoF1RWVlLCILTCksiFmWLAEW1oUgkzwHIPHz6kxl9fX8dzc3N6g6Hk2xaKqaqqMqDV/yAqYQpNB95/4krijG9ra8vF1GAfGxoakq0J4on8Mkr8trK6coUqYXLWESkj/klqeJ4A4iAW0dSIYP+6d+8eh4PvSFgj05oaNDmVMI0tmHJwxAbPBpAFR219ZEGl4HvkyX306BFTO1JKKmFSlpGRQwAS3EqsH55CTI0nDPYyY9JfHV4hRjJLgvgYJD6ORgLCiBxOuDgchGIgJmdwMoZtFSu0wPT0NPb29ua8EvB1FHz3SMjhnrKyMiFAoURdEhUaTJ96dnY2JYgERTF8KwKEeXl5KXb2irWlEiZmFSNk1dXVlDD4Bwsgy9fXF3/+/NmIWjVQdQ8zeDMRB8K3HcQTgmZnZxFZGlFCQgLKyMhALi4u4gCFUpUwhQYzt7pKmLkZUNi+SphCg5lbXSXM3AwobP83vfAn5JpunnAAAAAASUVORK5CYII=;clipPath=inset(0% 5.56% 0% 0%);" vertex="1" parent="1">
          <mxGeometry x="606.74" y="1107.5" width="15.48" height="10.927058823529412" as="geometry" />
        </mxCell>
        <mxCell id="gk1aNY16_VAk6JklORu2-296" value="&lt;font face=&quot;Times New Roman&quot;&gt;&lt;span style=&quot;font-size: 5.5px;&quot;&gt;占比：&lt;/span&gt;&lt;/font&gt;" style="text;html=1;align=center;verticalAlign=middle;resizable=0;points=[];autosize=1;strokeColor=none;fillColor=none;" vertex="1" parent="1">
          <mxGeometry x="580.22" y="1095.32" width="40" height="30" as="geometry" />
        </mxCell>
        <mxCell id="gk1aNY16_VAk6JklORu2-297" value="&lt;font face=&quot;Times New Roman&quot;&gt;&lt;span style=&quot;font-size: 5.5px;&quot;&gt;占比：&lt;/span&gt;&lt;/font&gt;" style="text;html=1;align=center;verticalAlign=middle;resizable=0;points=[];autosize=1;strokeColor=none;fillColor=none;" vertex="1" parent="1">
          <mxGeometry x="603.74" y="1138.32" width="40" height="30" as="geometry" />
        </mxCell>
      </root>
    </mxGraphModel>
  </diagram>
</mxfile>
